<?xml version="1.0" encoding="utf-8" standalone="no"?>
<!DOCTYPE svg PUBLIC "-//W3C//DTD SVG 1.1//EN"
  "http://www.w3.org/Graphics/SVG/1.1/DTD/svg11.dtd">
<!-- Created with matplotlib (https://matplotlib.org/) -->
<svg height="720pt" version="1.1" viewBox="0 0 576 720" width="576pt" xmlns="http://www.w3.org/2000/svg" xmlns:xlink="http://www.w3.org/1999/xlink">
 <defs>
  <style type="text/css">
*{stroke-linecap:butt;stroke-linejoin:round;}
  </style>
 </defs>
 <g id="figure_1">
  <g id="patch_1">
   <path d="M 0 720 
L 576 720 
L 576 0 
L 0 0 
z
" style="fill:#ffffff;"/>
  </g>
  <g id="axes_1">
   <g id="patch_2">
    <path d="M 72 246.282353 
L 203.294118 246.282353 
L 203.294118 86.4 
L 72 86.4 
z
" style="fill:#ffffff;"/>
   </g>
   <g id="matplotlib.axis_1"/>
   <g id="matplotlib.axis_2"/>
   <g id="line2d_1">
    <path clip-path="url(#p67184d6bf9)" d="M 77.967914 166.341176 
L 79.173554 166.573237 
L 80.379193 166.805267 
L 81.584832 167.037234 
L 82.790472 167.269107 
L 83.996111 167.500854 
L 85.20175 167.732446 
L 86.407389 167.96385 
L 87.613029 168.195035 
L 88.818668 168.42597 
L 90.024307 168.656624 
L 91.229947 168.886966 
L 92.435586 169.116965 
L 93.641225 169.346589 
L 94.846864 169.575809 
L 96.052504 169.804592 
L 97.258143 170.032908 
L 98.463782 170.260726 
L 99.669421 170.488016 
L 100.875061 170.714746 
L 102.0807 170.940887 
L 103.286339 171.166408 
L 104.491979 171.391278 
L 105.697618 171.615467 
L 106.903257 171.838945 
L 108.108896 172.061682 
L 109.314536 172.283648 
L 110.520175 172.504812 
L 111.725814 172.725145 
L 112.931454 172.944618 
L 114.137093 173.1632 
L 115.342732 173.380862 
L 116.548371 173.597575 
L 117.754011 173.813309 
L 118.95965 174.028037 
L 120.165289 174.241727 
L 121.370929 174.454353 
L 122.576568 174.665884 
L 123.782207 174.876293 
L 124.987846 175.085552 
L 126.193486 175.293631 
L 127.399125 175.500503 
L 128.604764 175.70614 
L 129.810404 175.910514 
L 131.016043 176.113599 
L 132.221682 176.315365 
L 133.427321 176.515787 
L 134.632961 176.714837 
L 135.8386 176.912488 
L 137.044239 177.108713 
L 138.249878 177.303487 
L 139.455518 177.496783 
L 140.661157 177.688575 
L 141.866796 177.878836 
L 143.072436 178.067542 
L 144.278075 178.254667 
L 145.483714 178.440186 
L 146.689353 178.624073 
L 147.894993 178.806304 
L 149.100632 178.986854 
L 150.306271 179.1657 
L 151.511911 179.342816 
L 152.71755 179.518179 
L 153.923189 179.691765 
L 155.128828 179.863552 
L 156.334468 180.033515 
L 157.540107 180.201631 
L 158.745746 180.367879 
L 159.951386 180.532236 
L 161.157025 180.694679 
L 162.362664 180.855187 
L 163.568303 181.013738 
L 164.773943 181.170311 
L 165.979582 181.324884 
L 167.185221 181.477437 
L 168.39086 181.627949 
L 169.5965 181.7764 
L 170.802139 181.922769 
L 172.007778 182.067038 
L 173.213418 182.209186 
L 174.419057 182.349195 
L 175.624696 182.487046 
L 176.830335 182.622719 
L 178.035975 182.756197 
L 179.241614 182.887462 
L 180.447253 183.016496 
L 181.652893 183.143281 
L 182.858532 183.267801 
L 184.064171 183.390039 
L 185.26981 183.509978 
L 186.47545 183.627602 
L 187.681089 183.742895 
L 188.886728 183.855842 
L 190.092368 183.966428 
L 191.298007 184.074637 
L 192.503646 184.180454 
L 193.709285 184.283867 
L 194.914925 184.38486 
L 196.120564 184.48342 
L 197.326203 184.579535 
" style="fill:none;stroke:#000000;stroke-dasharray:1.5,1.5;stroke-dashoffset:0;stroke-width:1.5;"/>
   </g>
   <g id="patch_3">
    <path d="M 72 246.282353 
L 72 86.4 
" style="fill:none;stroke:#000000;stroke-linecap:square;stroke-linejoin:miter;stroke-width:0.8;"/>
   </g>
   <g id="patch_4">
    <path d="M 203.294118 246.282353 
L 203.294118 86.4 
" style="fill:none;stroke:#000000;stroke-linecap:square;stroke-linejoin:miter;stroke-width:0.8;"/>
   </g>
   <g id="patch_5">
    <path d="M 72 246.282353 
L 203.294118 246.282353 
" style="fill:none;stroke:#000000;stroke-linecap:square;stroke-linejoin:miter;stroke-width:0.8;"/>
   </g>
   <g id="patch_6">
    <path d="M 72 86.4 
L 203.294118 86.4 
" style="fill:none;stroke:#000000;stroke-linecap:square;stroke-linejoin:miter;stroke-width:0.8;"/>
   </g>
   <g id="text_1">
    <!-- $h_0 = -0.12$ -->
    <defs>
     <path d="M 28.09375 66.484375 
C 28.203125 66.890625 28.40625 67.484375 28.40625 67.984375 
C 28.40625 69 27.40625 69 27.203125 69 
C 27.09375 69 22.203125 68.59375 21.703125 68.484375 
C 20 68.390625 18.5 68.1875 16.703125 68.09375 
C 14.203125 67.890625 13.5 67.796875 13.5 65.984375 
C 13.5 64.984375 14.296875 64.984375 15.703125 64.984375 
C 20.59375 64.984375 20.703125 64.109375 20.703125 63.125 
C 20.703125 62.53125 20.5 61.734375 20.40625 61.4375 
L 5.90625 3.890625 
C 5.5 2.390625 5.5 2.1875 5.5 1.59375 
C 5.5 -0.609375 7.203125 -1 8.203125 -1 
C 9.90625 -1 11.203125 0.296875 11.703125 1.390625 
L 16.203125 19.453125 
C 16.703125 21.640625 17.296875 23.734375 17.796875 25.9375 
C 18.90625 30.125 18.90625 30.21875 20.796875 33.109375 
C 22.703125 36.015625 27.203125 41.984375 34.90625 41.984375 
C 38.90625 41.984375 40.296875 39 40.296875 35.015625 
C 40.296875 29.421875 36.40625 18.546875 34.203125 12.5625 
C 33.296875 10.171875 32.796875 8.875 32.796875 7.078125 
C 32.796875 2.59375 35.90625 -1 40.703125 -1 
C 50 -1 53.5 13.65625 53.5 14.265625 
C 53.5 14.765625 53.09375 15.15625 52.5 15.15625 
C 51.59375 15.15625 51.5 14.859375 51 13.15625 
C 48.703125 5.1875 45 1 41 1 
C 40 1 38.40625 1.09375 38.40625 4.28125 
C 38.40625 6.875 39.59375 10.078125 40 11.171875 
C 41.796875 15.953125 46.296875 27.734375 46.296875 33.515625 
C 46.296875 39.5 42.796875 44 35.203125 44 
C 29.5 44 24.5 41.296875 20.40625 36.109375 
z
" id="CMMI12-104"/>
     <path d="M 42 31.84375 
C 42 37.96875 41.90625 48.421875 37.703125 56.453125 
C 34 63.484375 28.09375 66 22.90625 66 
C 18.09375 66 12 63.78125 8.203125 56.5625 
C 4.203125 49.015625 3.796875 39.671875 3.796875 31.84375 
C 3.796875 26.109375 3.90625 17.375 7 9.734375 
C 11.296875 -0.609375 19 -2 22.90625 -2 
C 27.5 -2 34.5 -0.109375 38.59375 9.4375 
C 41.59375 16.375 42 24.5 42 31.84375 
z
M 22.90625 -0.40625 
C 16.5 -0.40625 12.703125 5.125 11.296875 12.75 
C 10.203125 18.6875 10.203125 27.328125 10.203125 32.953125 
C 10.203125 40.6875 10.203125 47.109375 11.5 53.234375 
C 13.40625 61.78125 19 64.390625 22.90625 64.390625 
C 27 64.390625 32.296875 61.671875 34.203125 53.4375 
C 35.5 47.71875 35.59375 40.984375 35.59375 32.953125 
C 35.59375 26.421875 35.59375 18.375 34.40625 12.453125 
C 32.296875 1.5 26.40625 -0.40625 22.90625 -0.40625 
z
" id="CMR17-48"/>
     <path d="M 64.296875 32 
C 65.796875 32 67.296875 32 67.296875 33.6875 
C 67.296875 35.5 65.59375 35.5 63.90625 35.5 
L 8 35.5 
C 6.296875 35.5 4.59375 35.5 4.59375 33.6875 
C 4.59375 32 6.09375 32 7.59375 32 
z
M 63.90625 14.484375 
C 65.59375 14.484375 67.296875 14.484375 67.296875 16.296875 
C 67.296875 18 65.796875 18 64.296875 18 
L 7.59375 18 
C 6.09375 18 4.59375 18 4.59375 16.296875 
C 4.59375 14.484375 6.296875 14.484375 8 14.484375 
z
" id="CMR17-61"/>
     <path d="M 65.90625 23 
C 67.59375 23 69.40625 23 69.40625 25 
C 69.40625 27 67.59375 27 65.90625 27 
L 11.796875 27 
C 10.09375 27 8.296875 27 8.296875 25 
C 8.296875 23 10.09375 23 11.796875 23 
z
" id="CMSY10-0"/>
     <path d="M 18.40625 4.796875 
C 18.40625 7.6875 16 9.6875 13.59375 9.6875 
C 10.703125 9.6875 8.703125 7.296875 8.703125 4.890625 
C 8.703125 2 11.09375 0 13.5 0 
C 16.40625 0 18.40625 2.390625 18.40625 4.796875 
z
" id="CMMI12-58"/>
     <path d="M 26.59375 63.796875 
C 26.59375 65.890625 26.5 66 25.09375 66 
C 21.203125 61.359375 15.296875 59.890625 9.703125 59.6875 
C 9.40625 59.6875 8.90625 59.6875 8.796875 59.5 
C 8.703125 59.296875 8.703125 59.09375 8.703125 57 
C 11.796875 57 17 57.59375 21 59.984375 
L 21 7.296875 
C 21 3.796875 20.796875 2.59375 12.203125 2.59375 
L 9.203125 2.59375 
L 9.203125 0 
C 14 0.09375 19 0.1875 23.796875 0.1875 
C 28.59375 0.1875 33.59375 0.09375 38.40625 0 
L 38.40625 2.59375 
L 35.40625 2.59375 
C 26.796875 2.59375 26.59375 3.6875 26.59375 7.296875 
z
" id="CMR17-49"/>
     <path d="M 41.703125 15.46875 
L 39.90625 15.46875 
C 38.90625 8.390625 38.09375 7.1875 37.703125 6.59375 
C 37.203125 5.796875 30 5.796875 28.59375 5.796875 
L 9.40625 5.796875 
C 13 9.6875 20 16.765625 28.5 24.9375 
C 34.59375 30.71875 41.703125 37.5 41.703125 47.390625 
C 41.703125 59.1875 32.296875 66 21.796875 66 
C 10.796875 66 4.09375 56.296875 4.09375 47.296875 
C 4.09375 43.390625 7 42.890625 8.203125 42.890625 
C 9.203125 42.890625 12.203125 43.484375 12.203125 46.984375 
C 12.203125 50.09375 9.59375 51 8.203125 51 
C 7.59375 51 7 50.890625 6.59375 50.6875 
C 8.5 59.1875 14.296875 63.390625 20.40625 63.390625 
C 29.09375 63.390625 34.796875 56.5 34.796875 47.390625 
C 34.796875 38.703125 29.703125 31.21875 24 24.734375 
L 4.09375 2.296875 
L 4.09375 0 
L 39.296875 0 
z
" id="CMR17-50"/>
    </defs>
    <g transform="translate(108.983908 80.4)scale(0.12 -0.12)">
     <use transform="translate(0 14.943915)scale(0.996264)" xlink:href="#CMMI12-104"/>
     <use transform="translate(56.154624 0)scale(0.697382)" xlink:href="#CMR17-48"/>
     <use transform="translate(116.309947 14.943915)scale(0.996264)" xlink:href="#CMR17-61"/>
     <use transform="translate(215.698744 14.943915)scale(0.996264)" xlink:href="#CMSY10-0"/>
     <use transform="translate(293.186211 14.943915)scale(0.996264)" xlink:href="#CMR17-48"/>
     <use transform="translate(338.876689 14.943915)scale(0.996264)" xlink:href="#CMMI12-58"/>
     <use transform="translate(365.973866 14.943915)scale(0.996264)" xlink:href="#CMR17-49"/>
     <use transform="translate(411.664343 14.943915)scale(0.996264)" xlink:href="#CMR17-50"/>
    </g>
   </g>
  </g>
  <g id="axes_2">
   <g id="patch_7">
    <path d="M 229.552941 246.282353 
L 360.847059 246.282353 
L 360.847059 86.4 
L 229.552941 86.4 
z
" style="fill:#ffffff;"/>
   </g>
   <g id="matplotlib.axis_3"/>
   <g id="matplotlib.axis_4"/>
   <g id="line2d_2">
    <path clip-path="url(#p9bdabb889e)" d="M 235.520856 166.341176 
L 236.726495 157.533794 
L 237.932134 150.529145 
L 239.137773 146.760972 
L 240.343413 147.000562 
L 241.549052 151.198874 
L 242.754691 158.49658 
L 243.960331 167.399952 
L 245.16597 176.086609 
L 246.371609 182.778528 
L 247.577248 186.105978 
L 248.782888 185.387881 
L 249.988527 180.77122 
L 251.194166 173.200955 
L 252.399806 164.226599 
L 253.605445 155.685065 
L 254.811084 149.324671 
L 256.016723 146.44729 
L 257.222363 147.641877 
L 258.428002 152.66392 
L 259.633641 160.485483 
L 260.839281 169.505616 
L 262.04492 177.878037 
L 263.250559 183.889043 
L 264.456198 186.308274 
L 265.661838 184.640551 
L 266.867477 179.227232 
L 268.073116 171.176338 
L 269.278755 162.135762 
L 270.484395 153.955969 
L 271.690034 148.311234 
L 272.895673 146.356948 
L 274.101313 148.493122 
L 275.306952 154.282514 
L 276.512591 162.540126 
L 277.71823 171.575755 
L 278.92387 179.539946 
L 280.129509 184.802556 
L 281.335148 186.286408 
L 282.540788 183.687783 
L 283.746427 177.538578 
L 284.952066 169.097439 
L 286.157705 160.092137 
L 287.363345 152.365915 
L 288.568984 147.500211 
L 289.774623 146.49096 
L 290.980263 149.544738 
L 292.185902 156.036485 
L 293.391541 164.637442 
L 294.59718 173.587127 
L 295.80282 181.053679 
L 297.008459 185.508811 
L 298.214098 186.040627 
L 299.419737 182.540272 
L 300.625377 175.724216 
L 301.831016 166.987597 
L 303.036655 158.118667 
L 304.242295 150.932755 
L 305.447934 146.900708 
L 306.653573 146.847821 
L 307.859212 150.78492 
L 309.064852 157.906142 
L 310.270491 166.753885 
L 311.47613 175.517152 
L 312.68177 182.40224 
L 313.887409 185.999879 
L 315.093048 185.573688 
L 316.298687 181.210902 
L 317.504327 173.804514 
L 318.709966 164.870498 
L 319.915605 156.237507 
L 321.121245 149.672579 
L 322.326884 146.519454 
L 323.532523 147.423526 
L 324.738162 152.199746 
L 325.943802 159.870496 
L 327.149441 168.865694 
L 328.35508 177.344163 
L 329.560719 183.570491 
L 330.766359 186.270248 
L 331.971998 184.890834 
L 333.177637 179.714595 
L 334.383277 171.801025 
L 335.588916 162.76991 
L 336.794555 154.469777 
L 338.000194 148.599534 
L 339.205834 146.360729 
L 340.411473 148.21161 
L 341.617112 153.773331 
L 342.822752 161.907493 
L 344.028391 170.949162 
L 345.23403 179.047647 
L 346.439669 184.545317 
L 347.645309 186.316882 
L 348.850948 183.999732 
L 350.056587 178.068151 
L 351.262227 169.736241 
L 352.467866 160.709414 
L 353.673505 152.835322 
L 354.879144 147.725667 
" style="fill:none;stroke:#000000;stroke-dasharray:1.5,1.5;stroke-dashoffset:0;stroke-width:1.5;"/>
   </g>
   <g id="patch_8">
    <path d="M 229.552941 246.282353 
L 229.552941 86.4 
" style="fill:none;stroke:#000000;stroke-linecap:square;stroke-linejoin:miter;stroke-width:0.8;"/>
   </g>
   <g id="patch_9">
    <path d="M 360.847059 246.282353 
L 360.847059 86.4 
" style="fill:none;stroke:#000000;stroke-linecap:square;stroke-linejoin:miter;stroke-width:0.8;"/>
   </g>
   <g id="patch_10">
    <path d="M 229.552941 246.282353 
L 360.847059 246.282353 
" style="fill:none;stroke:#000000;stroke-linecap:square;stroke-linejoin:miter;stroke-width:0.8;"/>
   </g>
   <g id="patch_11">
    <path d="M 229.552941 86.4 
L 360.847059 86.4 
" style="fill:none;stroke:#000000;stroke-linecap:square;stroke-linejoin:miter;stroke-width:0.8;"/>
   </g>
   <g id="text_2">
    <!-- $h_1 = 4.56$ -->
    <defs>
     <path d="M 33.59375 64.796875 
C 33.59375 66.890625 33.5 67 31.703125 67 
L 2 19.59375 
L 2 17 
L 27.796875 17 
L 27.796875 7.1875 
C 27.796875 3.59375 27.59375 2.59375 20.59375 2.59375 
L 18.703125 2.59375 
L 18.703125 0 
C 21.90625 0.1875 27.296875 0.1875 30.703125 0.1875 
C 34.09375 0.1875 39.5 0.1875 42.703125 0 
L 42.703125 2.59375 
L 40.796875 2.59375 
C 33.796875 2.59375 33.59375 3.59375 33.59375 7.1875 
L 33.59375 17 
L 43.796875 17 
L 43.796875 19.59375 
L 33.59375 19.59375 
z
M 28.09375 58.171875 
L 28.09375 19.59375 
L 4 19.59375 
z
" id="CMR17-52"/>
     <path d="M 11.40625 58.59375 
C 12.40625 58.1875 16.5 56.890625 20.703125 56.890625 
C 30 56.890625 35.09375 61.890625 38 64.6875 
C 38 65.484375 38 66 37.40625 66 
C 37.296875 66 37.09375 66 36.296875 65.59375 
C 32.796875 64.09375 28.703125 63 23.703125 63 
C 20.703125 63 16.203125 63.359375 11.296875 65.484375 
C 10.203125 66 10 66 9.90625 66 
C 9.40625 66 9.296875 65.890625 9.296875 63.90625 
L 9.296875 34.859375 
C 9.296875 33.015625 9.296875 32.5 10.296875 32.5 
C 10.796875 32.5 11 32.703125 11.5 33.421875 
C 14.703125 38.046875 19.09375 40 24.09375 40 
C 27.59375 40 35.09375 37.734375 35.09375 20.203125 
C 35.09375 16.984375 35.09375 11.1875 32.09375 6.59375 
C 29.59375 2.484375 25.703125 0.390625 21.40625 0.390625 
C 14.796875 0.390625 8.09375 4.984375 6.296875 12.6875 
C 6.703125 12.59375 7.5 12.390625 7.90625 12.390625 
C 9.203125 12.390625 11.703125 13.09375 11.703125 16.1875 
C 11.703125 18.890625 9.796875 20 7.90625 20 
C 5.59375 20 4.09375 18.59375 4.09375 15.796875 
C 4.09375 7.09375 11 -2 21.59375 -2 
C 31.90625 -2 41.703125 6.890625 41.703125 19.796875 
C 41.703125 32.09375 33.90625 41.59375 24.203125 41.59375 
C 19.09375 41.59375 14.796875 39.6875 11.40625 36 
z
" id="CMR17-53"/>
     <path d="M 10.59375 34.34375 
C 10.59375 58 21.796875 63.6875 28.296875 63.6875 
C 30.40625 63.6875 35.5 63.265625 37.5 59.09375 
C 35.90625 59.09375 32.90625 59.09375 32.90625 55.59375 
C 32.90625 52.890625 35.09375 52 36.5 52 
C 37.40625 52 40.09375 52.390625 40.09375 55.796875 
C 40.09375 62.296875 35.09375 66 28.203125 66 
C 16.296875 66 3.796875 53.296875 3.796875 31.421875 
C 3.796875 4.015625 15.09375 -2 23.09375 -2 
C 32.796875 -2 42 6.734375 42 20.234375 
C 42 32.828125 33.90625 42 23.703125 42 
C 17.59375 42 13.09375 37.96875 10.59375 30.921875 
z
M 23.09375 0.390625 
C 10.796875 0.390625 10.796875 18.9375 10.796875 22.65625 
C 10.796875 29.90625 14.203125 40.390625 23.5 40.390625 
C 25.203125 40.390625 30.09375 40.390625 33.40625 33.4375 
C 35.203125 29.515625 35.203125 25.375 35.203125 20.34375 
C 35.203125 14.90625 35.203125 10.875 33.09375 6.84375 
C 30.90625 2.703125 27.703125 0.390625 23.09375 0.390625 
z
" id="CMR17-54"/>
    </defs>
    <g transform="translate(271.186094 80.4)scale(0.12 -0.12)">
     <use transform="translate(0 14.943915)scale(0.996264)" xlink:href="#CMMI12-104"/>
     <use transform="translate(56.154624 0)scale(0.697382)" xlink:href="#CMR17-49"/>
     <use transform="translate(116.309947 14.943915)scale(0.996264)" xlink:href="#CMR17-61"/>
     <use transform="translate(215.698744 14.943915)scale(0.996264)" xlink:href="#CMR17-52"/>
     <use transform="translate(261.389221 14.943915)scale(0.996264)" xlink:href="#CMMI12-58"/>
     <use transform="translate(288.486398 14.943915)scale(0.996264)" xlink:href="#CMR17-53"/>
     <use transform="translate(334.176875 14.943915)scale(0.996264)" xlink:href="#CMR17-54"/>
    </g>
   </g>
  </g>
  <g id="axes_3">
   <g id="patch_12">
    <path d="M 387.105882 246.282353 
L 518.4 246.282353 
L 518.4 86.4 
L 387.105882 86.4 
z
" style="fill:#ffffff;"/>
   </g>
   <g id="matplotlib.axis_5"/>
   <g id="matplotlib.axis_6"/>
   <g id="line2d_3">
    <path clip-path="url(#p0b5dbd12a5)" d="M 393.073797 166.341176 
L 394.279436 157.765854 
L 395.485075 150.993235 
L 396.690715 147.457029 
L 397.896354 147.928492 
L 399.101993 152.358552 
L 400.307632 159.887849 
L 401.513272 169.022625 
L 402.718911 177.940468 
L 403.92455 184.863322 
L 405.13019 188.421426 
L 406.335829 187.93367 
L 407.541468 183.547009 
L 408.747107 176.206368 
L 409.952747 167.461232 
L 411.158386 159.14848 
L 412.364025 153.016402 
L 413.569665 150.366839 
L 414.775304 151.788717 
L 415.980943 157.03749 
L 417.186582 165.085194 
L 418.392222 174.330848 
L 419.597861 182.928139 
L 420.8035 189.163334 
L 422.00914 191.806043 
L 423.214779 190.361057 
L 424.420418 185.169703 
L 425.626057 177.339974 
L 426.831697 168.519731 
L 428.037336 160.55941 
L 429.242975 155.133257 
L 430.448614 153.396633 
L 431.654254 155.74952 
L 432.859893 161.754647 
L 434.065532 170.226986 
L 435.271172 179.476305 
L 436.476811 187.653123 
L 437.68245 193.127263 
L 438.888089 194.821525 
L 440.093729 192.432158 
L 441.299368 186.491032 
L 442.505007 178.256766 
L 443.710647 169.4571 
L 444.916286 161.935253 
L 446.121925 157.272634 
L 447.327564 156.465148 
L 448.533204 159.719348 
L 449.738843 166.410145 
L 450.944482 175.208753 
L 452.150122 184.354664 
L 453.355761 192.015989 
L 454.5614 196.664417 
L 455.767039 197.388025 
L 456.972679 194.077932 
L 458.178318 187.450582 
L 459.383957 178.901088 
L 460.589596 170.217676 
L 461.795236 163.215652 
L 463.000875 159.365835 
L 464.206514 159.493499 
L 465.412154 163.609443 
L 466.617793 170.907782 
L 467.823432 179.930887 
L 469.029071 188.867741 
L 470.234711 195.924615 
L 471.44035 199.692217 
L 472.645989 199.434143 
L 473.851629 195.237604 
L 475.057268 187.995574 
L 476.262907 179.224001 
L 477.468546 170.751518 
L 478.674186 164.345141 
L 479.879825 161.348588 
L 481.085464 162.407233 
L 482.291104 167.336006 
L 483.496743 175.157269 
L 484.702382 184.300917 
L 485.908021 192.925755 
L 487.113661 199.296353 
L 488.3193 202.138258 
L 489.524939 200.898853 
L 490.730579 195.860464 
L 491.936218 188.082568 
L 493.141857 179.184931 
L 494.347496 171.016063 
L 495.553136 165.274854 
L 496.758775 163.162834 
L 497.964414 165.138235 
L 499.170053 170.822194 
L 500.375693 179.076295 
L 501.581332 188.235587 
L 502.786971 196.449366 
L 503.992611 202.059982 
L 505.19825 203.942133 
L 506.403889 201.733192 
L 507.609528 195.907429 
L 508.815168 187.678931 
L 510.020807 178.753098 
L 511.226446 170.977566 
L 512.432086 165.964025 
" style="fill:none;stroke:#000000;stroke-dasharray:1.5,1.5;stroke-dashoffset:0;stroke-width:1.5;"/>
   </g>
   <g id="patch_13">
    <path d="M 387.105882 246.282353 
L 387.105882 86.4 
" style="fill:none;stroke:#000000;stroke-linecap:square;stroke-linejoin:miter;stroke-width:0.8;"/>
   </g>
   <g id="patch_14">
    <path d="M 518.4 246.282353 
L 518.4 86.4 
" style="fill:none;stroke:#000000;stroke-linecap:square;stroke-linejoin:miter;stroke-width:0.8;"/>
   </g>
   <g id="patch_15">
    <path d="M 387.105882 246.282353 
L 518.4 246.282353 
" style="fill:none;stroke:#000000;stroke-linecap:square;stroke-linejoin:miter;stroke-width:0.8;"/>
   </g>
   <g id="patch_16">
    <path d="M 387.105882 86.4 
L 518.4 86.4 
" style="fill:none;stroke:#000000;stroke-linecap:square;stroke-linejoin:miter;stroke-width:0.8;"/>
   </g>
  </g>
  <g id="axes_4">
   <g id="patch_17">
    <path d="M 72 438.141176 
L 203.294118 438.141176 
L 203.294118 278.258824 
L 72 278.258824 
z
" style="fill:#ffffff;"/>
   </g>
   <g id="matplotlib.axis_7"/>
   <g id="matplotlib.axis_8"/>
   <g id="line2d_4">
    <path clip-path="url(#pcdc31c3ab9)" d="M 77.967914 358.2 
L 79.173554 358.432061 
L 80.379193 358.66409 
L 81.584832 358.896057 
L 82.790472 359.12793 
L 83.996111 359.359678 
L 85.20175 359.59127 
L 86.407389 359.822674 
L 87.613029 360.053859 
L 88.818668 360.284794 
L 90.024307 360.515448 
L 91.229947 360.74579 
L 92.435586 360.975789 
L 93.641225 361.205413 
L 94.846864 361.434632 
L 96.052504 361.663415 
L 97.258143 361.891731 
L 98.463782 362.119549 
L 99.669421 362.346839 
L 100.875061 362.57357 
L 102.0807 362.799711 
L 103.286339 363.025232 
L 104.491979 363.250102 
L 105.697618 363.474291 
L 106.903257 363.697769 
L 108.108896 363.920506 
L 109.314536 364.142471 
L 110.520175 364.363636 
L 111.725814 364.583969 
L 112.931454 364.803441 
L 114.137093 365.022023 
L 115.342732 365.239685 
L 116.548371 365.456398 
L 117.754011 365.672133 
L 118.95965 365.88686 
L 120.165289 366.100551 
L 121.370929 366.313176 
L 122.576568 366.524708 
L 123.782207 366.735117 
L 124.987846 366.944375 
L 126.193486 367.152454 
L 127.399125 367.359326 
L 128.604764 367.564963 
L 129.810404 367.769338 
L 131.016043 367.972422 
L 132.221682 368.174189 
L 133.427321 368.37461 
L 134.632961 368.57366 
L 135.8386 368.771311 
L 137.044239 368.967537 
L 138.249878 369.162311 
L 139.455518 369.355607 
L 140.661157 369.547398 
L 141.866796 369.73766 
L 143.072436 369.926366 
L 144.278075 370.113491 
L 145.483714 370.299009 
L 146.689353 370.482897 
L 147.894993 370.665128 
L 149.100632 370.845678 
L 150.306271 371.024523 
L 151.511911 371.201639 
L 152.71755 371.377002 
L 153.923189 371.550589 
L 155.128828 371.722375 
L 156.334468 371.892338 
L 157.540107 372.060455 
L 158.745746 372.226703 
L 159.951386 372.39106 
L 161.157025 372.553503 
L 162.362664 372.714011 
L 163.568303 372.872562 
L 164.773943 373.029134 
L 165.979582 373.183708 
L 167.185221 373.33626 
L 168.39086 373.486772 
L 169.5965 373.635223 
L 170.802139 373.781593 
L 172.007778 373.925862 
L 173.213418 374.06801 
L 174.419057 374.208019 
L 175.624696 374.345869 
L 176.830335 374.481543 
L 178.035975 374.615021 
L 179.241614 374.746286 
L 180.447253 374.87532 
L 181.652893 375.002105 
L 182.858532 375.126625 
L 184.064171 375.248863 
L 185.26981 375.368802 
L 186.47545 375.486426 
L 187.681089 375.601719 
L 188.886728 375.714666 
L 190.092368 375.825251 
L 191.298007 375.93346 
L 192.503646 376.039278 
L 193.709285 376.14269 
L 194.914925 376.243684 
L 196.120564 376.342244 
L 197.326203 376.438358 
" style="fill:none;stroke:#000000;stroke-dasharray:1.5,1.5;stroke-dashoffset:0;stroke-width:1.5;"/>
   </g>
   <g id="patch_18">
    <path d="M 72 438.141176 
L 72 278.258824 
" style="fill:none;stroke:#000000;stroke-linecap:square;stroke-linejoin:miter;stroke-width:0.8;"/>
   </g>
   <g id="patch_19">
    <path d="M 203.294118 438.141176 
L 203.294118 278.258824 
" style="fill:none;stroke:#000000;stroke-linecap:square;stroke-linejoin:miter;stroke-width:0.8;"/>
   </g>
   <g id="patch_20">
    <path d="M 72 438.141176 
L 203.294118 438.141176 
" style="fill:none;stroke:#000000;stroke-linecap:square;stroke-linejoin:miter;stroke-width:0.8;"/>
   </g>
   <g id="patch_21">
    <path d="M 72 278.258824 
L 203.294118 278.258824 
" style="fill:none;stroke:#000000;stroke-linecap:square;stroke-linejoin:miter;stroke-width:0.8;"/>
   </g>
   <g id="text_3">
    <!-- $h_0 = -0.12$ -->
    <g transform="translate(108.983908 272.258824)scale(0.12 -0.12)">
     <use transform="translate(0 14.943915)scale(0.996264)" xlink:href="#CMMI12-104"/>
     <use transform="translate(56.154624 0)scale(0.697382)" xlink:href="#CMR17-48"/>
     <use transform="translate(116.309947 14.943915)scale(0.996264)" xlink:href="#CMR17-61"/>
     <use transform="translate(215.698744 14.943915)scale(0.996264)" xlink:href="#CMSY10-0"/>
     <use transform="translate(293.186211 14.943915)scale(0.996264)" xlink:href="#CMR17-48"/>
     <use transform="translate(338.876689 14.943915)scale(0.996264)" xlink:href="#CMMI12-58"/>
     <use transform="translate(365.973866 14.943915)scale(0.996264)" xlink:href="#CMR17-49"/>
     <use transform="translate(411.664343 14.943915)scale(0.996264)" xlink:href="#CMR17-50"/>
    </g>
   </g>
  </g>
  <g id="axes_5">
   <g id="patch_22">
    <path d="M 229.552941 438.141176 
L 360.847059 438.141176 
L 360.847059 278.258824 
L 229.552941 278.258824 
z
" style="fill:#ffffff;"/>
   </g>
   <g id="matplotlib.axis_9"/>
   <g id="matplotlib.axis_10"/>
   <g id="line2d_5">
    <path clip-path="url(#pe52a239716)" d="M 235.520856 358.2 
L 236.726495 341.352379 
L 237.932134 340.07492 
L 239.137773 355.548219 
L 240.343413 373.47223 
L 241.549052 377.282017 
L 242.754691 363.456668 
L 243.960331 344.773234 
L 245.16597 338.498491 
L 246.371609 350.431404 
L 247.577248 369.543865 
L 248.782888 378.172601 
L 249.988527 368.343145 
L 251.194166 349.139641 
L 252.399806 338.3095 
L 253.605445 345.861676 
L 254.811084 364.816631 
L 256.016723 377.656656 
L 257.222363 372.515313 
L 258.428002 354.144105 
L 259.633641 339.521257 
L 260.839281 342.160849 
L 262.04492 359.623435 
L 263.250559 375.770517 
L 264.456198 375.679354 
L 265.661838 359.434197 
L 266.867477 342.048425 
L 268.073116 339.589546 
L 269.278755 354.329996 
L 270.484395 372.64701 
L 271.690034 377.612448 
L 272.895673 364.637373 
L 274.101313 345.713035 
L 275.306952 338.328846 
L 276.512591 349.309095 
L 277.71823 368.506102 
L 278.92387 378.17846 
L 280.129509 369.387211 
L 281.335148 350.257013 
L 282.540788 338.467531 
L 283.746427 344.914317 
L 284.952066 363.639408 
L 286.157705 377.337531 
L 287.363345 373.349212 
L 288.568984 355.36036 
L 289.774623 339.995834 
L 290.980263 341.455156 
L 292.185902 358.389655 
L 293.391541 375.14888 
L 294.59718 376.244362 
L 295.80282 360.663683 
L 297.008459 342.806128 
L 298.214098 339.175216 
L 299.419737 353.126547 
L 300.625377 371.76664 
L 301.831016 377.868774 
L 303.036655 365.793506 
L 304.242295 346.700503 
L 305.447934 338.235057 
L 306.653573 348.220725 
L 307.859212 367.428997 
L 309.064852 378.108054 
L 310.270491 370.388571 
L 311.47613 351.404707 
L 312.68177 338.700887 
L 313.887409 344.017674 
L 315.093048 362.441421 
L 316.298687 376.94535 
L 317.504327 374.125282 
L 318.709966 356.587455 
L 319.915605 340.539903 
L 321.121245 340.813383 
L 322.326884 357.155152 
L 323.532523 374.462544 
L 324.738162 376.740488 
L 325.943802 361.883764 
L 327.149441 343.622594 
L 328.35508 338.833509 
L 329.560719 351.942464 
L 330.766359 370.834482 
L 331.971998 378.050018 
L 333.177637 366.920651 
L 334.383277 347.73187 
L 335.588916 338.21748 
L 336.794555 347.17045 
L 338.000194 366.316662 
L 339.205834 377.961652 
L 340.411473 371.343404 
L 341.617112 352.578341 
L 342.822752 339.008679 
L 344.028391 343.175169 
L 345.23403 361.227243 
L 346.439669 376.481612 
L 347.645309 374.84056 
L 348.850948 357.820706 
L 350.056587 341.151387 
L 351.262227 340.237981 
L 352.467866 355.924637 
L 353.673505 373.714128 
L 354.879144 377.165839 
" style="fill:none;stroke:#000000;stroke-dasharray:1.5,1.5;stroke-dashoffset:0;stroke-width:1.5;"/>
   </g>
   <g id="patch_23">
    <path d="M 229.552941 438.141176 
L 229.552941 278.258824 
" style="fill:none;stroke:#000000;stroke-linecap:square;stroke-linejoin:miter;stroke-width:0.8;"/>
   </g>
   <g id="patch_24">
    <path d="M 360.847059 438.141176 
L 360.847059 278.258824 
" style="fill:none;stroke:#000000;stroke-linecap:square;stroke-linejoin:miter;stroke-width:0.8;"/>
   </g>
   <g id="patch_25">
    <path d="M 229.552941 438.141176 
L 360.847059 438.141176 
" style="fill:none;stroke:#000000;stroke-linecap:square;stroke-linejoin:miter;stroke-width:0.8;"/>
   </g>
   <g id="patch_26">
    <path d="M 229.552941 278.258824 
L 360.847059 278.258824 
" style="fill:none;stroke:#000000;stroke-linecap:square;stroke-linejoin:miter;stroke-width:0.8;"/>
   </g>
   <g id="text_4">
    <!-- $h_1 = 10.03$ -->
    <defs>
     <path d="M 22.09375 34 
C 31 34 34.90625 26.140625 34.90625 17.09375 
C 34.90625 5.03125 28.5 0.390625 22.703125 0.390625 
C 17.40625 0.390625 8.796875 3.015625 6.09375 10.796875 
C 6.59375 10.59375 7.09375 10.59375 7.59375 10.59375 
C 10 10.59375 11.796875 12.1875 11.796875 14.796875 
C 11.796875 17.6875 9.59375 19 7.59375 19 
C 5.90625 19 3.296875 18.1875 3.296875 14.484375 
C 3.296875 5.234375 12.296875 -2 22.90625 -2 
C 34 -2 42.5 6.75 42.5 16.984375 
C 42.5 26.84375 34.5 34 25 35.09375 
C 32.59375 36.671875 39.90625 43.375 39.90625 52.390625 
C 39.90625 60.25 32 66 23 66 
C 13.90625 66 5.90625 60.34375 5.90625 52.296875 
C 5.90625 48.796875 8.5 48.1875 9.796875 48.1875 
C 11.90625 48.1875 13.703125 49.484375 13.703125 52.09375 
C 13.703125 54.6875 11.90625 56 9.796875 56 
C 9.40625 56 8.90625 56 8.5 55.796875 
C 11.40625 62.484375 19.296875 63.6875 22.796875 63.6875 
C 26.296875 63.6875 32.90625 61.96875 32.90625 52.296875 
C 32.90625 49.484375 32.5 44.546875 29.09375 40.21875 
C 26.09375 36.390625 22.703125 36.1875 19.40625 35.890625 
C 18.90625 35.890625 16.59375 35.6875 16.203125 35.6875 
C 15.5 35.59375 15.09375 35.5 15.09375 34.796875 
C 15.09375 34.09375 15.203125 34 17.203125 34 
z
" id="CMR17-51"/>
    </defs>
    <g transform="translate(268.259599 272.258824)scale(0.12 -0.12)">
     <use transform="translate(0 14.943915)scale(0.996264)" xlink:href="#CMMI12-104"/>
     <use transform="translate(56.154624 0)scale(0.697382)" xlink:href="#CMR17-49"/>
     <use transform="translate(116.309947 14.943915)scale(0.996264)" xlink:href="#CMR17-61"/>
     <use transform="translate(215.698744 14.943915)scale(0.996264)" xlink:href="#CMR17-49"/>
     <use transform="translate(261.389221 14.943915)scale(0.996264)" xlink:href="#CMR17-48"/>
     <use transform="translate(307.079698 14.943915)scale(0.996264)" xlink:href="#CMMI12-58"/>
     <use transform="translate(334.176875 14.943915)scale(0.996264)" xlink:href="#CMR17-48"/>
     <use transform="translate(379.867352 14.943915)scale(0.996264)" xlink:href="#CMR17-51"/>
    </g>
   </g>
  </g>
  <g id="axes_6">
   <g id="patch_27">
    <path d="M 387.105882 438.141176 
L 518.4 438.141176 
L 518.4 278.258824 
L 387.105882 278.258824 
z
" style="fill:#ffffff;"/>
   </g>
   <g id="matplotlib.axis_11"/>
   <g id="matplotlib.axis_12"/>
   <g id="line2d_6">
    <path clip-path="url(#p99c1b38cb7)" d="M 393.073797 358.2 
L 394.279436 341.58444 
L 395.485075 340.53901 
L 396.690715 356.244276 
L 397.896354 374.40016 
L 399.101993 378.441695 
L 400.307632 364.847937 
L 401.513272 346.395907 
L 402.718911 340.35235 
L 403.92455 352.516198 
L 405.13019 371.859313 
L 406.335829 380.718391 
L 407.541468 371.118934 
L 408.747107 352.145054 
L 409.952747 341.544132 
L 411.158386 349.325091 
L 412.364025 368.508362 
L 413.569665 381.576206 
L 414.775304 376.662152 
L 415.980943 358.517675 
L 417.186582 344.120968 
L 418.392222 346.986081 
L 419.597861 364.673537 
L 420.8035 381.044808 
L 422.00914 381.177123 
L 423.214779 365.154703 
L 424.420418 347.990897 
L 425.626057 345.753182 
L 426.831697 360.713965 
L 428.037336 379.250451 
L 429.242975 384.434471 
L 430.448614 371.677059 
L 431.654254 352.969433 
L 432.859893 345.800979 
L 434.065532 356.995955 
L 435.271172 376.406653 
L 436.476811 386.291636 
L 437.68245 377.711919 
L 438.888089 358.79213 
L 440.093729 347.211906 
L 441.299368 353.866771 
L 442.505007 372.798735 
L 443.710647 386.702494 
L 444.916286 382.91855 
L 446.121925 365.132782 
L 447.327564 349.970023 
L 448.533204 351.629766 
L 449.738843 368.763315 
L 450.944482 385.720191 
L 452.150122 387.011899 
L 453.355761 371.625994 
L 454.5614 353.961735 
L 455.767039 350.522614 
L 456.972679 364.664206 
L 458.178318 383.493006 
L 459.383957 389.782265 
L 460.589596 377.892515 
L 461.795236 358.9834 
L 463.000875 350.700184 
L 464.206514 360.866403 
L 465.412154 380.25352 
L 466.617793 391.109694 
L 467.823432 383.565574 
L 469.029071 364.755296 
L 470.234711 352.223262 
L 471.44035 357.710012 
L 472.645989 376.301876 
L 473.851629 390.972053 
L 475.057268 388.316342 
L 476.262907 370.940958 
L 477.468546 355.053914 
L 478.674186 355.485945 
L 479.879825 371.984286 
L 481.085464 389.446252 
L 482.291104 391.876749 
L 483.496743 377.170536 
L 484.702382 359.057818 
L 485.908021 354.415102 
L 487.113661 367.668326 
L 488.3193 386.702492 
L 489.524939 394.058037 
L 490.730579 383.06652 
L 491.936218 364.013412 
L 493.141857 354.632501 
L 494.347496 363.716736 
L 495.553136 382.991981 
L 496.758775 394.763757 
L 497.964414 388.270029 
L 499.170053 369.627204 
L 500.375693 356.177481 
L 501.581332 360.461595 
L 502.786971 378.628962 
L 503.992611 393.996278 
L 505.19825 392.465811 
L 506.403889 375.554166 
L 507.609528 358.990665 
L 508.815168 358.180672 
L 510.020807 373.968321 
L 511.226446 391.856372 
L 512.432086 395.404197 
" style="fill:none;stroke:#000000;stroke-dasharray:1.5,1.5;stroke-dashoffset:0;stroke-width:1.5;"/>
   </g>
   <g id="patch_28">
    <path d="M 387.105882 438.141176 
L 387.105882 278.258824 
" style="fill:none;stroke:#000000;stroke-linecap:square;stroke-linejoin:miter;stroke-width:0.8;"/>
   </g>
   <g id="patch_29">
    <path d="M 518.4 438.141176 
L 518.4 278.258824 
" style="fill:none;stroke:#000000;stroke-linecap:square;stroke-linejoin:miter;stroke-width:0.8;"/>
   </g>
   <g id="patch_30">
    <path d="M 387.105882 438.141176 
L 518.4 438.141176 
" style="fill:none;stroke:#000000;stroke-linecap:square;stroke-linejoin:miter;stroke-width:0.8;"/>
   </g>
   <g id="patch_31">
    <path d="M 387.105882 278.258824 
L 518.4 278.258824 
" style="fill:none;stroke:#000000;stroke-linecap:square;stroke-linejoin:miter;stroke-width:0.8;"/>
   </g>
  </g>
  <g id="axes_7">
   <g id="patch_32">
    <path d="M 72 630 
L 203.294118 630 
L 203.294118 470.117647 
L 72 470.117647 
z
" style="fill:#ffffff;"/>
   </g>
   <g id="matplotlib.axis_13"/>
   <g id="matplotlib.axis_14"/>
   <g id="line2d_7">
    <path clip-path="url(#p8736be2b11)" d="M 77.967914 550.058824 
L 79.173554 548.922873 
L 80.379193 547.790595 
L 81.584832 546.665651 
L 82.790472 545.551678 
L 83.996111 544.452279 
L 85.20175 543.371007 
L 86.407389 542.311359 
L 87.613029 541.276761 
L 88.818668 540.270558 
L 90.024307 539.296004 
L 91.229947 538.35625 
L 92.435586 537.454334 
L 93.641225 536.593172 
L 94.846864 535.775549 
L 96.052504 535.004108 
L 97.258143 534.281345 
L 98.463782 533.609594 
L 99.669421 532.99103 
L 100.875061 532.427651 
L 102.0807 531.92128 
L 103.286339 531.473553 
L 104.491979 531.085918 
L 105.697618 530.759629 
L 106.903257 530.49574 
L 108.108896 530.295105 
L 109.314536 530.158373 
L 110.520175 530.085985 
L 111.725814 530.078175 
L 112.931454 530.13497 
L 114.137093 530.256185 
L 115.342732 530.441428 
L 116.548371 530.690101 
L 117.754011 531.001399 
L 118.95965 531.374315 
L 120.165289 531.807645 
L 121.370929 532.299987 
L 122.576568 532.849749 
L 123.782207 533.455153 
L 124.987846 534.114242 
L 126.193486 534.824886 
L 127.399125 535.584785 
L 128.604764 536.391484 
L 129.810404 537.242373 
L 131.016043 538.134703 
L 132.221682 539.065587 
L 133.427321 540.032015 
L 134.632961 541.030864 
L 135.8386 542.058903 
L 137.044239 543.112808 
L 138.249878 544.189172 
L 139.455518 545.284514 
L 140.661157 546.395293 
L 141.866796 547.517918 
L 143.072436 548.648758 
L 144.278075 549.784158 
L 145.483714 550.920445 
L 146.689353 552.053947 
L 147.894993 553.180997 
L 149.100632 554.297953 
L 150.306271 555.401202 
L 151.511911 556.487178 
L 152.71755 557.552368 
L 153.923189 558.59333 
L 155.128828 559.606697 
L 156.334468 560.589192 
L 157.540107 561.537639 
L 158.745746 562.448972 
L 159.951386 563.320243 
L 161.157025 564.148636 
L 162.362664 564.931472 
L 163.568303 565.66622 
L 164.773943 566.350504 
L 165.979582 566.982112 
L 167.185221 567.559001 
L 168.39086 568.079307 
L 169.5965 568.541346 
L 170.802139 568.943626 
L 172.007778 569.284845 
L 173.213418 569.5639 
L 174.419057 569.779889 
L 175.624696 569.932113 
L 176.830335 570.02008 
L 178.035975 570.043507 
L 179.241614 570.002316 
L 180.447253 569.896642 
L 181.652893 569.726825 
L 182.858532 569.493416 
L 184.064171 569.197168 
L 185.26981 568.83904 
L 186.47545 568.420189 
L 187.681089 567.94197 
L 188.886728 567.405929 
L 190.092368 566.813799 
L 191.298007 566.167495 
L 192.503646 565.469107 
L 193.709285 564.720892 
L 194.914925 563.92527 
L 196.120564 563.084813 
L 197.326203 562.202239 
" style="fill:none;stroke:#000000;stroke-dasharray:1.5,1.5;stroke-dashoffset:0;stroke-width:1.5;"/>
   </g>
   <g id="patch_33">
    <path d="M 72 630 
L 72 470.117647 
" style="fill:none;stroke:#000000;stroke-linecap:square;stroke-linejoin:miter;stroke-width:0.8;"/>
   </g>
   <g id="patch_34">
    <path d="M 203.294118 630 
L 203.294118 470.117647 
" style="fill:none;stroke:#000000;stroke-linecap:square;stroke-linejoin:miter;stroke-width:0.8;"/>
   </g>
   <g id="patch_35">
    <path d="M 72 630 
L 203.294118 630 
" style="fill:none;stroke:#000000;stroke-linecap:square;stroke-linejoin:miter;stroke-width:0.8;"/>
   </g>
   <g id="patch_36">
    <path d="M 72 470.117647 
L 203.294118 470.117647 
" style="fill:none;stroke:#000000;stroke-linecap:square;stroke-linejoin:miter;stroke-width:0.8;"/>
   </g>
   <g id="text_5">
    <!-- $h_0 = 0.57$ -->
    <defs>
     <path d="M 45.09375 61.796875 
L 45.09375 64 
L 21.59375 64 
C 9.90625 64 9.703125 65.09375 9.296875 67 
L 7.5 67 
L 4.59375 48.5 
L 6.40625 48.5 
C 6.703125 50.40625 7.40625 55.5 8.59375 57.390625 
C 9.203125 58.1875 16.59375 58.1875 18.296875 58.1875 
L 40.296875 58.1875 
L 29.203125 41.71875 
C 21.796875 30.640625 16.703125 15.671875 16.703125 2.59375 
C 16.703125 1.390625 16.703125 -2 20.296875 -2 
C 23.90625 -2 23.90625 1.390625 23.90625 2.6875 
L 23.90625 7.28125 
C 23.90625 23.65625 26.703125 34.4375 31.296875 41.3125 
z
" id="CMR17-55"/>
    </defs>
    <g transform="translate(113.633153 464.117647)scale(0.12 -0.12)">
     <use transform="translate(0 14.943915)scale(0.996264)" xlink:href="#CMMI12-104"/>
     <use transform="translate(56.154624 0)scale(0.697382)" xlink:href="#CMR17-48"/>
     <use transform="translate(116.309947 14.943915)scale(0.996264)" xlink:href="#CMR17-61"/>
     <use transform="translate(215.698744 14.943915)scale(0.996264)" xlink:href="#CMR17-48"/>
     <use transform="translate(261.389221 14.943915)scale(0.996264)" xlink:href="#CMMI12-58"/>
     <use transform="translate(288.486398 14.943915)scale(0.996264)" xlink:href="#CMR17-53"/>
     <use transform="translate(334.176875 14.943915)scale(0.996264)" xlink:href="#CMR17-55"/>
    </g>
   </g>
  </g>
  <g id="axes_8">
   <g id="patch_37">
    <path d="M 229.552941 630 
L 360.847059 630 
L 360.847059 470.117647 
L 229.552941 470.117647 
z
" style="fill:#ffffff;"/>
   </g>
   <g id="matplotlib.axis_15"/>
   <g id="matplotlib.axis_16"/>
   <g id="line2d_8">
    <path clip-path="url(#p99fe2f8cfd)" d="M 235.520856 550.058824 
L 236.726495 533.211203 
L 237.932134 531.933743 
L 239.137773 547.407043 
L 240.343413 565.331053 
L 241.549052 569.14084 
L 242.754691 555.315491 
L 243.960331 536.632057 
L 245.16597 530.357315 
L 246.371609 542.290228 
L 247.577248 561.402688 
L 248.782888 570.031425 
L 249.988527 560.201969 
L 251.194166 540.998464 
L 252.399806 530.168324 
L 253.605445 537.7205 
L 254.811084 556.675455 
L 256.016723 569.51548 
L 257.222363 564.374136 
L 258.428002 546.002929 
L 259.633641 531.38008 
L 260.839281 534.019673 
L 262.04492 551.482258 
L 263.250559 567.62934 
L 264.456198 567.538177 
L 265.661838 551.293021 
L 266.867477 533.907249 
L 268.073116 531.44837 
L 269.278755 546.18882 
L 270.484395 564.505833 
L 271.690034 569.471271 
L 272.895673 556.496197 
L 274.101313 537.571859 
L 275.306952 530.18767 
L 276.512591 541.167918 
L 277.71823 560.364925 
L 278.92387 570.037284 
L 280.129509 561.246035 
L 281.335148 542.115837 
L 282.540788 530.326355 
L 283.746427 536.77314 
L 284.952066 555.498232 
L 286.157705 569.196354 
L 287.363345 565.208036 
L 288.568984 547.219184 
L 289.774623 531.854658 
L 290.980263 533.313979 
L 292.185902 550.248479 
L 293.391541 567.007704 
L 294.59718 568.103185 
L 295.80282 552.522506 
L 297.008459 534.664951 
L 298.214098 531.034039 
L 299.419737 544.98537 
L 300.625377 563.625463 
L 301.831016 569.727598 
L 303.036655 557.652329 
L 304.242295 538.559327 
L 305.447934 530.09388 
L 306.653573 540.079549 
L 307.859212 559.287821 
L 309.064852 569.966878 
L 310.270491 562.247395 
L 311.47613 543.263531 
L 312.68177 530.559711 
L 313.887409 535.876497 
L 315.093048 554.300245 
L 316.298687 568.804174 
L 317.504327 565.984106 
L 318.709966 548.446279 
L 319.915605 532.398727 
L 321.121245 532.672207 
L 322.326884 549.013975 
L 323.532523 566.321368 
L 324.738162 568.599312 
L 325.943802 553.742587 
L 327.149441 535.481418 
L 328.35508 530.692333 
L 329.560719 543.801287 
L 330.766359 562.693305 
L 331.971998 569.908842 
L 333.177637 558.779474 
L 334.383277 539.590693 
L 335.588916 530.076304 
L 336.794555 539.029274 
L 338.000194 558.175485 
L 339.205834 569.820476 
L 340.411473 563.202227 
L 341.617112 544.437165 
L 342.822752 530.867502 
L 344.028391 535.033993 
L 345.23403 553.086067 
L 346.439669 568.340436 
L 347.645309 566.699383 
L 348.850948 549.67953 
L 350.056587 533.01021 
L 351.262227 532.096805 
L 352.467866 547.78346 
L 353.673505 565.572951 
L 354.879144 569.024662 
" style="fill:none;stroke:#000000;stroke-dasharray:1.5,1.5;stroke-dashoffset:0;stroke-width:1.5;"/>
   </g>
   <g id="patch_38">
    <path d="M 229.552941 630 
L 229.552941 470.117647 
" style="fill:none;stroke:#000000;stroke-linecap:square;stroke-linejoin:miter;stroke-width:0.8;"/>
   </g>
   <g id="patch_39">
    <path d="M 360.847059 630 
L 360.847059 470.117647 
" style="fill:none;stroke:#000000;stroke-linecap:square;stroke-linejoin:miter;stroke-width:0.8;"/>
   </g>
   <g id="patch_40">
    <path d="M 229.552941 630 
L 360.847059 630 
" style="fill:none;stroke:#000000;stroke-linecap:square;stroke-linejoin:miter;stroke-width:0.8;"/>
   </g>
   <g id="patch_41">
    <path d="M 229.552941 470.117647 
L 360.847059 470.117647 
" style="fill:none;stroke:#000000;stroke-linecap:square;stroke-linejoin:miter;stroke-width:0.8;"/>
   </g>
   <g id="text_6">
    <!-- $h_1 = 10.03$ -->
    <g transform="translate(268.259599 464.117647)scale(0.12 -0.12)">
     <use transform="translate(0 14.943915)scale(0.996264)" xlink:href="#CMMI12-104"/>
     <use transform="translate(56.154624 0)scale(0.697382)" xlink:href="#CMR17-49"/>
     <use transform="translate(116.309947 14.943915)scale(0.996264)" xlink:href="#CMR17-61"/>
     <use transform="translate(215.698744 14.943915)scale(0.996264)" xlink:href="#CMR17-49"/>
     <use transform="translate(261.389221 14.943915)scale(0.996264)" xlink:href="#CMR17-48"/>
     <use transform="translate(307.079698 14.943915)scale(0.996264)" xlink:href="#CMMI12-58"/>
     <use transform="translate(334.176875 14.943915)scale(0.996264)" xlink:href="#CMR17-48"/>
     <use transform="translate(379.867352 14.943915)scale(0.996264)" xlink:href="#CMR17-51"/>
    </g>
   </g>
  </g>
  <g id="axes_9">
   <g id="patch_42">
    <path d="M 387.105882 630 
L 518.4 630 
L 518.4 470.117647 
L 387.105882 470.117647 
z
" style="fill:#ffffff;"/>
   </g>
   <g id="matplotlib.axis_17"/>
   <g id="matplotlib.axis_18"/>
   <g id="line2d_9">
    <path clip-path="url(#pb0dcf6823b)" d="M 393.073797 550.058824 
L 394.279436 532.075252 
L 395.485075 529.665515 
L 396.690715 544.01387 
L 397.896354 560.823908 
L 399.101993 563.534296 
L 400.307632 548.627675 
L 401.513272 528.884593 
L 402.718911 521.575252 
L 403.92455 532.501963 
L 405.13019 550.639869 
L 406.335829 558.328851 
L 407.541468 547.597479 
L 408.747107 527.532813 
L 409.952747 515.885049 
L 411.158386 522.665785 
L 412.364025 540.897976 
L 413.569665 553.066251 
L 414.775304 547.306343 
L 415.980943 528.371756 
L 417.186582 513.242537 
L 418.392222 515.434402 
L 419.597861 532.509353 
L 420.8035 548.330145 
L 422.00914 547.975094 
L 423.214779 531.529302 
L 424.420418 514.006798 
L 425.626057 511.475531 
L 426.831697 526.208172 
L 428.037336 544.58198 
L 429.242975 549.668633 
L 430.448614 536.878802 
L 431.654254 518.203136 
L 432.859893 511.130245 
L 434.065532 522.48341 
L 435.271172 542.113747 
L 436.476811 552.278447 
L 437.68245 544.03696 
L 438.888089 525.512166 
L 440.093729 514.381773 
L 441.299368 521.539202 
L 442.505007 541.024193 
L 443.710647 555.529015 
L 444.916286 552.391586 
L 446.121925 535.295063 
L 447.327564 520.861421 
L 448.533204 523.287171 
L 449.738843 541.220519 
L 450.944482 559.007783 
L 452.150122 561.15717 
L 453.355761 546.652855 
L 454.5614 529.890642 
L 455.767039 527.370509 
L 456.972679 542.444465 
L 458.178318 562.215398 
L 459.383957 569.452932 
L 460.589596 558.513951 
L 461.795236 540.55445 
L 463.000875 533.216054 
L 464.206514 544.318678 
L 465.412154 564.630199 
L 466.617793 576.395232 
L 467.823432 569.74094 
L 469.029071 551.798037 
L 470.234711 540.107584 
L 471.44035 546.406866 
L 472.645989 565.779061 
L 473.851629 581.194322 
L 475.057268 579.245526 
L 476.262907 562.536092 
L 477.468546 547.271375 
L 478.674186 548.279603 
L 479.879825 565.305656 
L 481.085464 583.244656 
L 482.291104 586.099489 
L 483.496743 571.76307 
L 484.702382 553.963941 
L 485.908021 549.577135 
L 487.113661 563.027309 
L 488.3193 582.198381 
L 489.524939 589.629907 
L 490.730579 578.652764 
L 491.936218 559.55195 
L 493.141857 550.060987 
L 494.347496 558.972766 
L 495.553136 578.013304 
L 496.758775 589.488477 
L 497.964414 582.636819 
L 499.170053 563.575509 
L 500.375693 549.647719 
L 501.581332 553.395358 
L 502.786971 570.969213 
L 503.992611 585.687541 
L 505.19825 583.454359 
L 506.403889 565.788202 
L 507.609528 548.420494 
L 508.815168 546.758873 
L 510.020807 561.649907 
L 511.226446 578.598941 
L 512.432086 581.168078 
" style="fill:none;stroke:#000000;stroke-dasharray:1.5,1.5;stroke-dashoffset:0;stroke-width:1.5;"/>
   </g>
   <g id="patch_43">
    <path d="M 387.105882 630 
L 387.105882 470.117647 
" style="fill:none;stroke:#000000;stroke-linecap:square;stroke-linejoin:miter;stroke-width:0.8;"/>
   </g>
   <g id="patch_44">
    <path d="M 518.4 630 
L 518.4 470.117647 
" style="fill:none;stroke:#000000;stroke-linecap:square;stroke-linejoin:miter;stroke-width:0.8;"/>
   </g>
   <g id="patch_45">
    <path d="M 387.105882 630 
L 518.4 630 
" style="fill:none;stroke:#000000;stroke-linecap:square;stroke-linejoin:miter;stroke-width:0.8;"/>
   </g>
   <g id="patch_46">
    <path d="M 387.105882 470.117647 
L 518.4 470.117647 
" style="fill:none;stroke:#000000;stroke-linecap:square;stroke-linejoin:miter;stroke-width:0.8;"/>
   </g>
  </g>
 </g>
 <defs>
  <clipPath id="p67184d6bf9">
   <rect height="159.882353" width="131.294118" x="72" y="86.4"/>
  </clipPath>
  <clipPath id="p9bdabb889e">
   <rect height="159.882353" width="131.294118" x="229.552941" y="86.4"/>
  </clipPath>
  <clipPath id="p0b5dbd12a5">
   <rect height="159.882353" width="131.294118" x="387.105882" y="86.4"/>
  </clipPath>
  <clipPath id="pcdc31c3ab9">
   <rect height="159.882353" width="131.294118" x="72" y="278.258824"/>
  </clipPath>
  <clipPath id="pe52a239716">
   <rect height="159.882353" width="131.294118" x="229.552941" y="278.258824"/>
  </clipPath>
  <clipPath id="p99c1b38cb7">
   <rect height="159.882353" width="131.294118" x="387.105882" y="278.258824"/>
  </clipPath>
  <clipPath id="p8736be2b11">
   <rect height="159.882353" width="131.294118" x="72" y="470.117647"/>
  </clipPath>
  <clipPath id="p99fe2f8cfd">
   <rect height="159.882353" width="131.294118" x="229.552941" y="470.117647"/>
  </clipPath>
  <clipPath id="pb0dcf6823b">
   <rect height="159.882353" width="131.294118" x="387.105882" y="470.117647"/>
  </clipPath>
 </defs>
</svg>
